<svg xmlns="http://www.w3.org/2000/svg" viewBox="0 0 64 64" width="64" height="64"><defs><filter id="sh" x="-60%" y="-60%" width="220%" height="220%"><feDropShadow dx="0" dy="1.1" stdDeviation="1.3" flood-color="#0b1220" flood-opacity="0.45"/></filter><mask id="cut" maskUnits="userSpaceOnUse"><rect width="64" height="64" fill="#fff"/><circle cx="32" cy="13" r="5.7" fill="#000"/><circle cx="20" cy="31" r="4.7" fill="#000"/><circle cx="44" cy="31" r="4.7" fill="#000"/><circle cx="13" cy="51" r="4.7" fill="#000"/><circle cx="51" cy="51" r="4.7" fill="#000"/><circle cx="32" cy="51" r="5.3" fill="#000"/></mask><linearGradient id="jet" x1="0" y1="0" x2="0" y2="1"><stop offset="0" stop-color="#fca5a5" stop-opacity="0.35"/><stop offset="1" stop-color="#f87171" stop-opacity="1"/></linearGradient></defs><rect width="64" height="64" rx="14" fill="#0f172a"/><g mask="url(#cut)"><g fill="none" stroke-linecap="round" stroke="#ffffff" stroke-width="6" opacity="0.09"><path d="M32 13 Q24 23 20 31"/><path d="M32 13 Q40 23 44 31"/><path d="M20 31 Q15 41 13 51"/><path d="M20 31 Q26 41 32 51"/><path d="M44 31 Q38 41 32 51"/><path d="M44 31 Q49 41 51 51"/></g><g fill="none" stroke-linecap="round" stroke="#ffffff" stroke-width="2.2" opacity="0.6"><path d="M32 13 Q24 23 20 31"/><path d="M32 13 Q40 23 44 31"/></g><g fill="none" stroke-linecap="round" stroke="#ffffff" stroke-width="2" opacity="0.4"><path d="M20 31 Q15 41 13 51"/><path d="M20 31 Q26 41 32 51"/><path d="M44 31 Q38 41 32 51"/><path d="M44 31 Q49 41 51 51"/></g><path d="M29.5 14 L34.5 14 L33 50 L31 50 Z" fill="url(#jet)"/></g><g fill="none" stroke-linecap="round" stroke="#ffffff" stroke-width="1.4" opacity="0.26"><path d="M17 58 Q32 62 47 58"/><path d="M22 61 Q32 63.4 42 61"/></g><g fill="#ffffff" filter="url(#sh)"><circle cx="32" cy="13" r="5"/><circle cx="20" cy="31" r="4" opacity="0.66"/><circle cx="44" cy="31" r="4" opacity="0.66"/><circle cx="13" cy="51" r="4" opacity="0.44"/><circle cx="51" cy="51" r="4" opacity="0.44"/><circle cx="32" cy="51" r="4.6" fill="#ef4444"/></g></svg>