<svg xmlns="http://www.w3.org/2000/svg" viewBox="0 0 268 64" role="img" aria-label="CASCADE" color="#0d0d0d"><style>@media (prefers-color-scheme:dark){svg{color:#f4f4f4}}</style><defs><filter id="sh" x="-60%" y="-60%" width="220%" height="220%"><feDropShadow dx="0" dy="1.1" stdDeviation="1.3" flood-color="#030303" flood-opacity="0.28"/></filter><mask id="cut" maskUnits="userSpaceOnUse"><rect width="64" height="64" fill="#fff"/><circle cx="32" cy="12" r="5.7" fill="#000"/><circle cx="20" cy="30" r="4.7" fill="#000"/><circle cx="44" cy="30" r="4.7" fill="#000"/><circle cx="13" cy="50" r="4.7" fill="#000"/><circle cx="51" cy="50" r="4.7" fill="#000"/><circle cx="32" cy="50" r="5.3" fill="#000"/></mask><linearGradient id="jet" x1="0" y1="0" x2="0" y2="1"><stop offset="0" stop-color="#e65247" stop-opacity="0.35"/><stop offset="1" stop-color="#e65247" stop-opacity="1"/></linearGradient></defs><g><g mask="url(#cut)"><g fill="none" stroke-linecap="round" stroke="currentColor" stroke-width="6" opacity="0.09"><path d="M32 12 Q24 22 20 30"/><path d="M32 12 Q40 22 44 30"/><path d="M20 30 Q15 40 13 50"/><path d="M20 30 Q26 40 32 50"/><path d="M44 30 Q38 40 32 50"/><path d="M44 30 Q49 40 51 50"/></g><g fill="none" stroke-linecap="round" stroke="currentColor" stroke-width="2.2" opacity="0.6"><path d="M32 12 Q24 22 20 30"/><path d="M32 12 Q40 22 44 30"/></g><g fill="none" stroke-linecap="round" stroke="currentColor" stroke-width="2" opacity="0.4"><path d="M20 30 Q15 40 13 50"/><path d="M20 30 Q26 40 32 50"/><path d="M44 30 Q38 40 32 50"/><path d="M44 30 Q49 40 51 50"/></g><path d="M29.5 13 L34.5 13 L33 49 L31 49 Z" fill="url(#jet)"/></g><g fill="none" stroke-linecap="round" stroke="currentColor" stroke-width="1.4" opacity="0.26"><path d="M17 57 Q32 61 47 57"/><path d="M22 60 Q32 62.4 42 60"/></g><g fill="currentColor" filter="url(#sh)"><circle cx="32" cy="12" r="5"/><circle cx="20" cy="30" r="4" opacity="0.66"/><circle cx="44" cy="30" r="4" opacity="0.66"/><circle cx="13" cy="50" r="4" opacity="0.44"/><circle cx="51" cy="50" r="4" opacity="0.44"/><circle cx="32" cy="50" r="4.6" fill="#e65247"/></g></g><text x="80" y="43" font-family="Inter, 'Segoe UI', system-ui, -apple-system, Roboto, Helvetica, Arial, sans-serif" font-weight="700" letter-spacing="3.2" font-size="30" fill="currentColor">CASCADE</text></svg>